<svg xmlns="http://www.w3.org/2000/svg" height="800" width="1200" viewBox="-48.0015 -10.819275 416.013 64.91565"><path d="M23.1316.0197h17.0195c7.7433 14.4547 15.6143 28.8407 23.4559 43.2366H49.0244c-1.356-2.555-2.663-5.1393-4.1467-7.6352-8.8144.0786-17.6386.0196-26.453.0295-1.2774 2.5352-2.545 5.0704-3.8127 7.6057H0C7.7138 28.8408 15.4374 14.445 23.1316.0197m.1965 26.5217c5.5618.0098 11.1236.0295 16.6854-.0098a891.1826 891.1826 0 00-8.49-16.7444c-2.5058 5.6994-5.4833 11.163-8.1954 16.7542zM67.5376.0197C74.308.0295 81.0785-.0098 87.849.0393c4.9525 9.2762 10.0525 18.464 15.064 27.6911 5.0115-9.237 10.1115-18.4247 15.0739-27.691 6.7704-.0394 13.531-.01 20.3015-.0197v43.2366H125.514c-.0099-10.4652.0098-20.9305-.0099-31.3957-5.837 10.4652-11.782 20.8911-17.56 31.3957H97.8819c-5.778-10.5046-11.723-20.9207-17.56-31.3957-.0294 10.4652 0 20.9305-.0098 31.3957H67.5376V.0197zm79.3392.0098c11.89-.0098 23.7703-.0197 35.6604 0 5.0213.0295 11.0548 1.1693 13.6097 6.0531 2.3878 4.8248 1.9456 10.4652 1.5624 15.6831-.4324 5.326-4.5595 10.3768-10.1311 10.5635-9.2173.285-18.4444.0295-27.6715.118v10.809h-13.03a31692.4522 31692.4522 0 010-43.2267m13.0399 10.534c-.0099 3.7832-.0099 7.5566-.0099 11.3398 7.1636-.0688 14.327.1277 21.4906-.0786 3.5277-.7567 3.3115-5.1098 2.997-7.8809-.3144-2.27-2.6334-3.3213-4.697-3.341-6.5936-.108-13.1872 0-19.7807-.0393zM204.8532.0197h46.6955c.0099 3.2722.0099 6.5444 0 9.8265-11.2218.0098-22.4437-.0099-33.6656 0v6.8785c10.5635.0098 21.1368-.0098 31.7003 0a1313.8 1313.8 0 010 8.834c-10.5635.0197-21.127 0-31.7003.0099-.0295 2.486 0 4.9624.0688 7.4386 11.438-.0884 22.8761-.0098 34.324-.0294v10.2785h-47.4227a31706.8637 31706.8637 0 010-43.2366zM258.103.0098c5.6208.0099 11.2514.0295 16.8721-.0098 4.5792 4.933 8.952 10.0623 13.364 15.1426 4.481-4.9918 8.8734-10.082 13.3248-15.1033 5.67-.0393 11.3496 0 17.0293-.0295-6.6328 7.1144-13.1183 14.3762-19.5842 21.6576 7.0653 7.0948 13.9045 14.3959 20.901 21.5496-5.8566.0786-11.7132.0295-17.5698.0393-4.6283-5.2572-9.3057-10.4554-14.0224-15.6242-4.756 5.0607-9.3745 10.2687-13.934 15.526-5.9254.1964-11.8508.108-17.786.0294 7.0751-7.1046 13.8849-14.4646 20.9993-21.5299-6.515-7.2323-12.9612-14.5236-19.594-21.6478z" fill="#33c"/></svg>